<svg width="170" height="253" viewBox="0 0 170 253" fill="none" xmlns="http://www.w3.org/2000/svg">
<g clip-path="url(#clip0_3987_51925)">
<path d="M83.6843 252.598C83.276 252.434 82.5625 251.685 82.101 250.936C80.1983 247.848 78.1855 244.5 77.2554 242.885C76.7123 241.937 75.4378 239.91 74.4296 238.377C73.4215 236.843 72.0086 234.582 71.2915 233.354C69.3142 229.956 67.8126 227.496 65.7998 224.369C63.8651 221.358 61.8346 218.029 60.2122 215.196C59.6691 214.248 58.3982 212.221 57.3901 210.687C56.3819 209.154 54.969 206.893 54.2519 205.664C52.2746 202.267 50.773 199.807 48.7602 196.679C47.7556 195.118 46.3463 192.853 45.6256 191.642C44.905 190.435 43.1158 187.51 41.6533 185.142C40.1907 182.775 38.2738 179.661 37.3934 178.22C36.513 176.779 34.596 173.665 33.1335 171.298C31.6709 168.93 29.754 165.817 28.8736 164.375C27.9932 162.934 26.0763 159.821 24.6137 157.453C20.7478 151.205 18.0889 146.828 12.97 138.284C12.5617 137.602 11.5429 135.681 10.7087 134.024C9.87444 132.366 8.81301 130.417 8.34797 129.696C7.88648 128.979 7.37885 127.861 7.2191 127.211C6.79311 125.504 6.18253 123.807 5.22405 121.681C4.75901 120.651 4.37917 119.565 4.37917 119.27C4.37917 118.972 4.06677 118.117 3.68338 117.367C3.30354 116.618 3.06215 115.933 3.15089 115.845C3.23964 115.759 2.99825 114.489 2.61486 113.022C2.23147 111.556 1.84453 109.788 1.75933 109.093C1.67058 108.393 1.43274 107.509 1.22684 107.126C1.02095 106.743 0.918001 106.363 0.999649 106.281C1.0813 106.203 0.999647 105.504 0.825701 104.726C0.321613 102.493 -0.0653262 93.6541 0.00922201 85.9224C0.0837702 77.8996 0.222217 75.6206 0.847002 72.0778C1.08485 70.7111 1.26589 69.1953 1.24459 68.7054C1.22684 68.2155 1.35464 67.4984 1.53214 67.1079C1.91908 66.2595 3.31064 61.3713 3.45619 60.3631C3.50944 59.9726 3.81473 59.1526 4.13067 58.5456C4.44662 57.935 4.62056 57.3528 4.51761 57.2463C4.41467 57.1434 4.65251 56.4263 5.0501 55.6488C5.44414 54.875 5.68909 54.1614 5.59324 54.062C5.44769 53.92 9.097 46.2025 10.5028 43.6786C10.7229 43.2881 11.1418 42.4893 11.4364 41.9036C11.731 41.3179 12.3416 40.441 12.7925 39.9547C13.2398 39.4684 13.6089 38.8897 13.6089 38.6732C13.6089 38.4531 14.0846 37.7325 14.6668 37.0722C15.2526 36.4084 15.7318 35.6948 15.7318 35.4854C15.7353 35.2759 16.3779 34.3956 17.1553 33.5329C17.9327 32.6703 18.9906 31.3071 19.5054 30.5013C20.3218 29.2162 26.5129 22.9258 29.4274 20.416C31.7348 18.4245 38.7317 13.3659 40.1872 12.6311C41.0427 12.198 42.3349 11.4206 43.059 10.9023C44.2376 10.0539 49.2146 7.59022 51.0606 6.93704C51.4511 6.79859 52.5338 6.3442 53.4674 5.92531C54.3975 5.50643 55.4057 5.16209 55.7038 5.16209C55.9985 5.16209 56.7546 4.89584 57.3794 4.5728C58.0042 4.24976 58.9946 3.86282 59.5804 3.71372C60.1661 3.56463 62.4948 2.96114 64.7561 2.37541C67.0174 1.78613 70.294 1.14714 72.0335 0.948347C73.7765 0.749553 75.6792 0.46911 76.265 0.320014C77.5003 0.00762245 91.913 -0.0101271 94.0145 0.298715C94.7955 0.412312 96.4711 0.675005 97.7419 0.877349C99.0128 1.07969 100.529 1.32109 101.114 1.40984C101.7 1.49858 103.695 1.98492 105.552 2.48901C107.408 2.99309 109.244 3.45458 109.634 3.51848C110.025 3.57883 110.845 3.88767 111.452 4.20361C112.062 4.51955 112.644 4.6935 112.751 4.59055C112.854 4.4876 113.571 4.72545 114.348 5.12304C115.122 5.51708 115.836 5.76202 115.932 5.66617C116.202 5.39993 129.045 11.9531 130.043 12.8689C130.529 13.3162 131.108 13.6819 131.324 13.6819C131.544 13.6819 132.265 14.1575 132.925 14.7397C133.589 15.3255 134.313 15.8047 134.54 15.8047C134.768 15.8083 135.648 16.4472 136.493 17.2211C137.341 17.9985 138.701 19.06 139.514 19.5854C140.795 20.4054 146.851 26.3763 149.581 29.5109C151.502 31.7154 156.624 38.7868 157.366 40.26C157.799 41.1155 158.577 42.4077 159.095 43.1319C159.944 44.3104 162.407 49.2874 163.06 51.1334C163.199 51.5239 163.653 52.6066 164.072 53.5402C164.491 54.4703 164.835 55.4784 164.835 55.7766C164.835 56.0713 165.102 56.8274 165.425 57.4522C165.748 58.077 166.135 59.0674 166.287 59.6531C166.436 60.2389 166.983 62.3156 167.494 64.268C168.605 68.4818 169.642 75.1556 169.841 79.3551C170.373 90.6722 169.496 107.119 168.293 108.322C168.147 108.464 168.03 108.968 168.03 109.441C168.03 111.049 165.705 119.686 165.183 120.005C165.038 120.097 164.814 120.712 164.69 121.368C164.569 122.025 164.164 123.186 163.795 123.945C163.426 124.702 163.192 125.429 163.273 125.561C163.483 125.898 157.143 138.404 155.527 140.839C154.789 141.954 154.186 143.005 154.186 143.182C154.186 143.356 153.781 143.963 153.287 144.528C152.798 145.096 151.981 146.423 151.477 147.478C150.976 148.536 150.181 149.81 149.713 150.314C149.244 150.822 148.861 151.376 148.861 151.553C148.861 151.727 148.14 152.962 147.263 154.294C146.386 155.628 145.666 156.86 145.666 157.031C145.666 157.201 145.261 157.808 144.768 158.372C144.278 158.94 143.461 160.268 142.957 161.322C142.457 162.38 141.662 163.655 141.193 164.159C140.724 164.666 140.341 165.22 140.341 165.398C140.341 165.572 139.62 166.807 138.743 168.138C137.863 169.473 137.146 170.705 137.146 170.875C137.146 171.046 136.741 171.653 136.248 172.217C135.758 172.785 134.942 174.113 134.437 175.167C133.937 176.225 133.142 177.499 132.673 178.003C132.205 178.511 131.821 179.065 131.821 179.242C131.821 179.416 131.104 180.652 130.224 181.983C129.343 183.318 128.626 184.549 128.626 184.72C128.626 184.89 128.222 185.497 127.728 186.062C127.238 186.63 126.422 187.957 125.918 189.012C125.417 190.066 124.686 191.262 124.292 191.674C123.901 192.082 123.422 192.86 123.227 193.396C123.035 193.932 122.737 194.372 122.567 194.372C122.393 194.372 121.949 194.972 121.58 195.703C120.025 198.788 119.577 199.555 118.96 200.219C118.601 200.606 117.898 201.788 117.398 202.846C116.897 203.907 116.166 205.107 115.772 205.519C115.381 205.927 114.902 206.704 114.707 207.24C114.515 207.776 114.217 208.217 114.047 208.217C113.873 208.217 113.429 208.817 113.06 209.548C111.505 212.633 111.058 213.4 110.44 214.063C110.081 214.45 109.379 215.632 108.878 216.69C108.377 217.752 107.646 218.952 107.252 219.363C106.862 219.772 106.382 220.549 106.187 221.085C105.996 221.621 105.697 222.061 105.527 222.061C105.353 222.061 104.909 222.661 104.54 223.393C102.985 226.477 102.538 227.244 101.92 227.908C101.562 228.295 100.859 229.477 100.358 230.535C99.8577 231.596 99.1264 232.796 98.7324 233.208C98.3419 233.616 97.8626 234.394 97.6674 234.93C97.4757 235.466 97.1775 235.906 97.0071 235.906C96.8332 235.906 96.3894 236.506 96.0202 237.237C94.4654 240.322 94.0181 241.089 93.4004 241.753C93.0419 242.14 92.339 243.322 91.8349 244.383C91.3343 245.441 90.5427 246.723 90.0741 247.227C89.6055 247.734 89.2222 248.324 89.2222 248.54C89.2222 248.76 88.8246 249.367 88.3347 249.896C87.8448 250.421 87.4472 251.075 87.4472 251.344C87.4472 251.998 86.0592 252.953 85.1504 252.924C84.7528 252.91 84.0961 252.764 83.6843 252.598ZM74.4829 149.562C74.6143 149.909 76.9181 149.988 85.0404 149.917L95.4345 149.821L95.7895 138.461L102.712 138.28C108.956 138.12 109.808 138.024 111.409 137.29C114.569 135.838 117.266 132.554 117.266 130.154C117.266 129.572 117.426 128.997 117.621 128.876C118.126 128.564 118.097 97.8821 117.59 95.1344C117.377 93.9807 116.958 92.5537 116.663 91.9644C116.06 90.7681 113.745 88.2299 113.255 88.2299C113.081 88.2299 112.513 87.9246 111.991 87.5554C111.469 87.1827 110.486 86.7531 109.805 86.6005C109.127 86.4478 100.664 86.2313 90.9971 86.1212L73.425 85.9224V76.6927L115.669 76.3377V55.3932L95.7895 55.0383L95.4345 43.6786H74.49L74.135 55.0383L67.5677 55.2655C61.1104 55.4855 59.3638 55.7234 57.6208 56.6215C56.5097 57.1931 54.0815 59.4969 54.0709 59.9904C54.0673 60.1963 53.7514 60.7607 53.368 61.2506C52.9846 61.7405 52.6687 62.6493 52.6651 63.2705C52.6616 63.8953 52.4983 64.5023 52.303 64.623C52.0758 64.765 51.948 70.6862 51.9516 81.2401C51.9551 98.2406 52.0226 99.1565 53.4887 101.95C54.1561 103.218 56.3038 105.252 58.1604 106.366L59.5804 107.222L96.4995 107.577V116.807L54.2555 117.162V138.106L74.135 138.461L74.2273 143.786C74.277 146.715 74.3942 149.313 74.4829 149.562Z" fill="black"/>
<path d="M74.483 149.562C74.3943 149.313 74.2771 146.715 74.2274 143.786L74.1351 138.461L64.1954 138.284L54.2556 138.106V127.634V117.162L75.3776 116.984L96.4996 116.807V112.192V107.577L78.0401 107.4L59.5805 107.222L58.1605 106.366C56.3039 105.252 54.1562 103.218 53.4888 101.95C52.0227 99.1566 51.9553 98.2408 51.9517 81.2403C51.9482 70.6864 52.076 64.7651 52.3032 64.6232C52.4984 64.5025 52.6617 63.8954 52.6653 63.2706C52.6688 62.6494 52.9848 61.7406 53.3681 61.2507C53.7515 60.7609 54.0675 60.1964 54.071 59.9905C54.0817 59.4971 56.5098 57.1932 57.6209 56.6217C59.364 55.7235 61.1105 55.4857 67.5678 55.2656L74.1351 55.0384L74.3126 49.3586L74.4901 43.6787H84.9624H95.4346L95.6121 49.3586L95.7896 55.0384L105.729 55.2159L115.669 55.3934V65.8656V76.3378L94.5472 76.5153L73.4252 76.6928V81.3077V85.9226L90.9972 86.1214C100.664 86.2314 109.127 86.448 109.805 86.6006C110.486 86.7533 111.47 87.1828 111.991 87.5555C112.513 87.9247 113.081 88.23 113.255 88.23C113.745 88.23 116.06 90.7682 116.663 91.9645C116.958 92.5538 117.377 93.9809 117.59 95.1346C118.097 97.8822 118.126 128.564 117.622 128.876C117.426 128.997 117.267 129.572 117.267 130.154C117.267 132.554 114.569 135.838 111.409 137.29C109.808 138.025 108.956 138.12 102.712 138.28L95.7896 138.461L95.6121 144.141L95.4346 149.821L85.0405 149.917C76.9183 149.988 74.6144 149.91 74.483 149.562Z" fill="#12F186"/>
</g>
<defs>
<clipPath id="clip0_3987_51925">
<rect width="170" height="253" fill="white"/>
</clipPath>
</defs>
</svg>
