<?xml version="1.0" encoding="utf-8"?>
<!-- Generator: Adobe Illustrator 24.0.1, SVG Export Plug-In . SVG Version: 6.00 Build 0)  -->
<svg version="1.1" id="Слой_2" xmlns="http://www.w3.org/2000/svg" xmlns:xlink="http://www.w3.org/1999/xlink" x="0px" y="0px"
	 viewBox="0 0 2500 1600" style="enable-background:new 0 0 2500 1600;" xml:space="preserve">
<style type="text/css">
	.st0{fill:#DDCCD3;}
	.st1{fill:#3E5777;}
	.st2{fill:#8BA3B7;}
	.st3{fill:#67819B;}
	.st4{fill:#354868;}
	.st5{fill:#2B395B;}
	.st6{fill:#384F6D;}
	.st7{fill:#577894;}
	.st8{fill:#8BCBDB;}
	.st9{fill:#559BAF;}
	.st10{opacity:0.5;}
	.st11{fill:#BDDCDB;}
	.st12{opacity:0.3;}
	.st13{fill:#2C395A;}
	.st14{fill:#9CA8B5;}
	.st15{fill:#25294C;}
	.st16{fill:#7B93AA;}
	.st17{fill:#D9D2C9;}
	.st18{fill:#3D5677;}
	.st19{fill:#F0A67F;}
	.st20{fill:#E07B55;}
	.st21{fill:#181C23;}
	.st22{fill:#272F38;}
	.st23{fill:#272D35;}
	.st24{fill:#4C4A54;}
	.st25{fill:#373742;}
	.st26{fill:#F0A67E;}
	.st27{fill:#DE7952;}
	.st28{fill:#49817A;}
	.st29{fill:#2E6361;}
	.st30{fill:#F1A77E;}
	.st31{fill:#E07C55;}
	.st32{opacity:0.7;}
	.st33{fill:#E7865D;}
	.st34{fill:#C14321;}
	.st35{fill:#E2592A;}
	.st36{fill:#F0C65E;}
</style>
<g>
	<rect class="st0" width="2500" height="1600"/>
</g>
<g>
	<g>
		<path class="st1" d="M173.21,1600V175.89c0,0,1.02-18.13,26.3-20.17S331,143.47,506.4,148.57s497.11,31.4,497.11,31.4
			s26.04,5.62,34.21,43.66c8.17,38.04,168.51,758.04,168.51,758.04V1600H173.21z"/>
	</g>
	<g>
		<path class="st2" d="M336.09,148.38c0,0,31.67,9.13,39.84,45.13c8.17,36,158.81,847.91,158.81,847.91L533.98,1600h64.34
			l-1.28-564.96L437.21,187.13c0,0-10.72-22.98-25.28-30.13s-39.32-9.46-39.32-9.46L336.09,148.38z"/>
	</g>
	<g>
		<path class="st3" d="M326.9,148.38c0,0,31.67,9.13,39.84,45.13c8.17,36,158.81,847.91,158.81,847.91L524.79,1600h64.34
			l-1.28-564.96L428.02,187.13c0,0-10.72-22.98-25.28-30.13s-39.32-9.46-39.32-9.46L326.9,148.38z"/>
	</g>
	<g>
		<polygon class="st4" points="443.95,222.89 984.62,240.49 925.77,301.63 456.17,287.72 		"/>
	</g>
	<g>
		<polygon class="st5" points="443.95,222.89 448.96,222.89 475.51,288.39 603.51,1006.28 597.04,1035.04 		"/>
	</g>
	<g>
		<polygon class="st6" points="984.62,240.49 1148.21,957.43 1034.15,968.66 925.77,301.63 		"/>
	</g>
	<g>
		<path class="st6" d="M984.62,240.49c0,0-7.66-31.83-12.77-41.36c-5.11-9.53-18.07-23.08-18.07-23.08l-4.91-0.38
			c0,0,17.24,17.85,19.15,25.12c1.91,7.28,1.28,39.2,1.28,39.2L984.62,240.49z"/>
	</g>
	<g>
		<path class="st7" d="M475.51,288.39l442.73,13.24c0,0,5.71,2.18,7.54,11.54c1.82,9.36,65.74,332.77,65.74,332.77
			s6.64,19.91-18.38,20.94c-25.02,1.02-426.16,22.31-426.16,22.31L475.51,288.39z"/>
	</g>
	<g>
		<path class="st8" d="M515.88,330.69l366.23,6.43c5.24,0.09,9.76,3.81,10.73,8.96c0.01,0.07,0.03,0.15,0.04,0.22
			c1.3,7.37,46.99,261.98,46.99,261.98s4.75,15.68-13.14,16.48c-15.82,0.71-294.22,13.9-358.39,16.94
			c-7.52,0.36-14.15-4.93-15.53-12.38l-52.02-280.65C499.04,339.21,506.34,330.52,515.88,330.69z"/>
	</g>
	<g>
		<path class="st9" d="M926.74,625.1c17.89-0.8,13.14-16.48,13.14-16.48s-45.69-254.61-46.99-261.98c-0.01-0.07-0.03-0.15-0.04-0.22
			c-0.96-5.15-5.49-8.87-10.73-8.96l-366.23-6.43c-9.55-0.17-16.84,8.52-15.09,17.97l363.31,3.83c0,0,9.7,0.68,13.28,18.04
			S926.74,625.1,926.74,625.1z"/>
	</g>
	<g class="st10">
		<polygon class="st11" points="757.64,334.93 574.57,641.71 648.41,637.9 830.92,336.21 		"/>
	</g>
	<g class="st12">
		<polygon class="st11" points="841.75,336.4 674.18,636.68 705.04,634.19 884.36,337.51 		"/>
	</g>
	<g>
		<g>
			<path class="st13" d="M635.92,772.44l-36.06,1.75c-6.28,0.3-11.76-4.11-12.58-10.13l-2.8-20.74c-0.95-7,4.73-13.17,12.04-13.09
				l34.55,0.38c5.6,0.06,10.43,3.84,11.65,9.11l4.31,18.61C648.66,765.35,643.36,772.08,635.92,772.44z"/>
		</g>
		<g>
			<path class="st14" d="M636.86,770.45l-34.08,1.68c-5.94,0.29-11.12-3.92-11.89-9.67l-2.64-19.8c-0.89-6.68,4.48-12.58,11.39-12.5
				l32.66,0.35c5.29,0.06,9.85,3.66,11.01,8.7l4.07,17.77C648.9,763.68,643.89,770.1,636.86,770.45z"/>
		</g>
	</g>
	<g>
		<g>
			<path class="st13" d="M711.52,768.73l-36.06,1.75c-6.28,0.3-11.76-4.11-12.58-10.13l-2.8-20.74c-0.95-7,4.73-13.17,12.04-13.09
				l34.55,0.38c5.6,0.06,10.43,3.84,11.65,9.11l4.31,18.61C724.26,761.64,718.96,768.37,711.52,768.73z"/>
		</g>
		<g>
			<path class="st14" d="M712.45,766.74l-34.08,1.68c-5.94,0.29-11.12-3.92-11.89-9.67l-2.64-19.8c-0.89-6.68,4.48-12.58,11.39-12.5
				l32.66,0.35c5.29,0.06,9.85,3.66,11.01,8.7l4.07,17.77C724.5,759.97,719.48,766.39,712.45,766.74z"/>
		</g>
	</g>
	<g>
		<g>
			<path class="st13" d="M784.55,763.96l-36.06,1.75c-6.28,0.3-11.76-4.11-12.58-10.13l-2.8-20.74c-0.95-7,4.73-13.17,12.04-13.09
				l34.55,0.38c5.6,0.06,10.43,3.84,11.65,9.11l4.31,18.61C797.29,756.88,791.99,763.6,784.55,763.96z"/>
		</g>
		<g>
			<path class="st14" d="M785.48,761.97l-34.08,1.68c-5.94,0.29-11.12-3.92-11.89-9.67l-2.64-19.8c-0.89-6.68,4.48-12.58,11.39-12.5
				l32.66,0.35c5.29,0.06,9.85,3.66,11.01,8.7L796,748.5C797.53,755.2,792.52,761.63,785.48,761.97z"/>
		</g>
	</g>
	<g>
		<g>
			<path class="st13" d="M655.05,830.35L619,832.09c-6.28,0.3-11.76-4.11-12.58-10.13l-2.8-20.74c-0.95-7,4.73-13.17,12.04-13.09
				l34.55,0.38c5.6,0.06,10.43,3.84,11.65,9.11l4.31,18.61C667.79,823.26,662.49,829.99,655.05,830.35z"/>
		</g>
		<g>
			<path class="st14" d="M655.99,828.36l-34.08,1.68c-5.94,0.29-11.12-3.92-11.89-9.67l-2.64-19.8c-0.89-6.68,4.48-12.58,11.39-12.5
				l32.66,0.35c5.29,0.06,9.85,3.66,11.01,8.7l4.07,17.77C668.03,821.59,663.02,828.01,655.99,828.36z"/>
		</g>
	</g>
	<g>
		<g>
			<path class="st13" d="M730.64,826.64l-36.06,1.75c-6.28,0.3-11.76-4.11-12.58-10.13l-2.8-20.74c-0.95-7,4.73-13.17,12.04-13.09
				l34.55,0.38c5.6,0.06,10.43,3.84,11.65,9.11l4.31,18.61C743.39,819.55,738.08,826.28,730.64,826.64z"/>
		</g>
		<g>
			<path class="st14" d="M731.58,824.65l-34.08,1.68c-5.94,0.29-11.12-3.92-11.89-9.67l-2.64-19.8c-0.89-6.68,4.48-12.58,11.39-12.5
				l32.66,0.35c5.29,0.06,9.85,3.66,11.01,8.7l4.07,17.77C743.62,817.88,738.61,824.3,731.58,824.65z"/>
		</g>
	</g>
	<g>
		<g>
			<path class="st13" d="M803.68,821.87l-36.06,1.75c-6.28,0.3-11.76-4.11-12.58-10.13l-2.8-20.74c-0.95-7,4.73-13.17,12.04-13.09
				l34.55,0.38c5.6,0.06,10.43,3.84,11.65,9.11l4.31,18.61C816.42,814.78,811.12,821.51,803.68,821.87z"/>
		</g>
		<g>
			<path class="st14" d="M804.61,819.88l-34.08,1.68c-5.94,0.29-11.12-3.92-11.89-9.67l-2.64-19.8c-0.89-6.68,4.48-12.58,11.39-12.5
				l32.66,0.35c5.29,0.06,9.85,3.66,11.01,8.7l4.07,17.77C816.66,813.11,811.65,819.54,804.61,819.88z"/>
		</g>
	</g>
	<g>
		<g>
			<path class="st13" d="M670.88,888.94l-36.06,1.75c-6.28,0.3-11.76-4.11-12.58-10.13l-2.8-20.74c-0.95-7,4.73-13.17,12.04-13.09
				l34.55,0.38c5.6,0.06,10.43,3.84,11.65,9.11l4.31,18.61C683.62,881.85,678.32,888.58,670.88,888.94z"/>
		</g>
		<g>
			<path class="st14" d="M671.81,886.95l-34.08,1.68c-5.94,0.29-11.12-3.92-11.89-9.67l-2.64-19.8c-0.89-6.68,4.48-12.58,11.39-12.5
				l32.66,0.35c5.29,0.06,9.85,3.66,11.01,8.7l4.07,17.77C683.86,880.18,678.85,886.6,671.81,886.95z"/>
		</g>
	</g>
	<g>
		<g>
			<path class="st13" d="M746.47,885.23l-36.06,1.75c-6.28,0.3-11.76-4.11-12.58-10.13l-2.8-20.74c-0.95-7,4.73-13.17,12.04-13.09
				l34.55,0.38c5.6,0.06,10.43,3.84,11.65,9.11l4.31,18.61C759.21,878.14,753.91,884.87,746.47,885.23z"/>
		</g>
		<g>
			<path class="st14" d="M747.4,883.24l-34.08,1.68c-5.94,0.29-11.12-3.92-11.89-9.67l-2.64-19.8c-0.89-6.68,4.48-12.58,11.39-12.5
				l32.66,0.35c5.29,0.06,9.85,3.66,11.01,8.7l4.07,17.77C759.45,876.47,754.44,882.89,747.4,883.24z"/>
		</g>
	</g>
	<g>
		<g>
			<path class="st13" d="M819.5,880.46l-36.06,1.75c-6.28,0.3-11.76-4.11-12.58-10.13l-2.8-20.74c-0.95-7,4.73-13.17,12.04-13.09
				l34.55,0.38c5.6,0.06,10.43,3.84,11.65,9.11l4.31,18.61C832.25,873.37,826.94,880.1,819.5,880.46z"/>
		</g>
		<g>
			<path class="st14" d="M820.44,878.47l-34.08,1.68c-5.94,0.29-11.12-3.92-11.89-9.67l-2.64-19.8c-0.89-6.68,4.48-12.58,11.39-12.5
				l32.66,0.35c5.29,0.06,9.85,3.66,11.01,8.7l4.07,17.77C832.48,871.7,827.47,878.13,820.44,878.47z"/>
		</g>
	</g>
	<g>
		<g>
			<path class="st13" d="M689.26,951.02l-36.02,2.42c-6.28,0.42-11.84-3.89-12.77-9.89l-3.19-20.68
				c-1.08-6.98,4.49-13.26,11.8-13.31l34.55-0.27c5.6-0.04,10.5,3.64,11.82,8.89l4.66,18.53
				C701.87,943.7,696.69,950.52,689.26,951.02z"/>
		</g>
		<g>
			<path class="st14" d="M690.16,949.01l-34.05,2.32c-5.93,0.4-11.19-3.71-12.06-9.45l-3.01-19.75
				c-1.02-6.66,4.24-12.66,11.15-12.71l32.66-0.26c5.29-0.04,9.92,3.48,11.17,8.49l4.4,17.69
				C702.07,942.02,697.18,948.54,690.16,949.01z"/>
		</g>
	</g>
	<g>
		<g>
			<path class="st13" d="M764.77,945.89l-36.02,2.42c-6.28,0.42-11.84-3.89-12.77-9.89l-3.19-20.68
				c-1.08-6.98,4.49-13.26,11.8-13.31l34.55-0.27c5.6-0.04,10.5,3.64,11.82,8.89l4.66,18.53
				C777.38,938.56,772.2,945.39,764.77,945.89z"/>
		</g>
		<g>
			<path class="st14" d="M765.67,943.88l-34.05,2.32c-5.93,0.4-11.19-3.71-12.06-9.45l-3.01-19.75
				c-1.02-6.66,4.24-12.66,11.15-12.71l32.66-0.26c5.29-0.04,9.92,3.48,11.17,8.49l4.4,17.69
				C777.58,936.89,772.69,943.41,765.67,943.88z"/>
		</g>
	</g>
	<g>
		<g>
			<path class="st13" d="M837.7,939.75l-36.02,2.42c-6.28,0.42-11.84-3.89-12.77-9.89l-3.19-20.68c-1.08-6.98,4.49-13.26,11.8-13.31
				l34.55-0.27c5.6-0.04,10.5,3.64,11.82,8.89l4.66,18.53C850.31,932.43,845.13,939.25,837.7,939.75z"/>
		</g>
		<g>
			<path class="st14" d="M838.6,937.75l-34.05,2.32c-5.93,0.4-11.19-3.71-12.06-9.45l-3.01-19.75c-1.02-6.66,4.24-12.66,11.15-12.71
				l32.66-0.26c5.29-0.04,9.92,3.48,11.17,8.49l4.4,17.69C850.52,930.75,845.62,937.27,838.6,937.75z"/>
		</g>
	</g>
	<g>
		<path class="st13" d="M828.53,721.75l143-5.97l40.65,200.28c0,0-128.25,11.44-127.82,10.19S828.53,721.75,828.53,721.75z"/>
	</g>
	<g>
		<polygon class="st15" points="844.09,778.07 983.09,772.69 987.71,793.96 850.29,800.58 		"/>
	</g>
	<g>
		
			<rect x="602.69" y="985.47" transform="matrix(0.9962 -0.0869 0.0869 0.9962 -82.7359 74.9142)" class="st13" width="432.28" height="4"/>
	</g>
	<g>
		<polygon class="st16" points="596.8,1033.76 1150.74,983.98 1150.74,997.77 597.08,1050.36 		"/>
	</g>
	<g>
		<polygon class="st13" points="603.24,1007.48 603,1276.74 1147.77,1211.98 1146.71,984.34 1138.85,958.35 1148.21,957.43 
			1153.89,983.98 1153.89,1224.74 597.62,1290.19 596.8,1033.76 		"/>
	</g>
	<g>
		<polygon class="st17" points="597.62,1290.19 598.32,1600 1153.89,1600 1153.89,1224.74 		"/>
	</g>
	<g>
		<polygon class="st18" points="746.66,1478.28 783.68,1361.34 812.53,1357.26 850.32,1463.21 825.55,1467.81 799.77,1383.04 
			796.32,1383.68 772.45,1474.19 		"/>
	</g>
	<g>
		<path class="st18" d="M775.09,1431.64l51.23-9.36l3.4,18.89c0,0-60.94,12.6-60.94,12.09
			C768.79,1452.74,775.09,1431.64,775.09,1431.64z"/>
	</g>
	<g>
		<path class="st18" d="M875.35,1458.7c-0.52-1.36-2.56-88.85-2.56-88.85l-29.28,4.09v-21.11l80.85-10.55v20.43l-26.89,4.26
			l0.85,88.17L875.35,1458.7z"/>
	</g>
	<g>
		<path class="st18" d="M939.34,1448.83c0-0.51,0-108.77,0-108.77l32-3.57l20.43,62.13l2.72-0.17l21.79-67.91l29.28-3.4l2.38,104.17
			l-22.81,4.43l-1.36-69.96l-2.72,0.17l-20.6,66.04l-16.34,1.02L963,1371.21h-3.23l0.51,75.4L939.34,1448.83z"/>
	</g>
</g>
<g>
	<g>
		<path class="st19" d="M1408.45,185.85c0,0-1.02,80.68,1.53,90.21c2.55,9.53,20.94,21.11,12.6,52.94s-21.11,58.04-10.89,71.49
			s35.91,1.02,35.91,1.02s-2.55,26.55,3.23,30.47s6.3,3.4,7.66,11.06s3.06,13.79,9.36,16.68c6.3,2.89,6.3,1.87,9.36,10.55
			c3.06,8.68,1.36,29.96,27.23,33.36c25.87,3.4,53.45-7.15,60.77-10.72s13.79-12.6,16-10.72s15.83,13.11,28.43,45.45
			s14.3,49.87,14.3,49.87l195.23-116.94c0,0-25.02-13.79-42.72-52.6s-25.87-79.32-25.87-79.32l-140.43-153.02L1408.45,185.85z"/>
	</g>
	<g>
		<path class="st20" d="M1633.64,269.34c-0.51-1.53-16.34-25.53-29.62-13.79c-13.28,11.74-8.43,14.3,2.04,24
			c10.47,9.7,20.43,20.17,10.72,30.38c-9.7,10.21-13.28,2.81-14.3-4.09s-4.85-16.34-10.47-21.19c-5.62-4.85-13.02-29.36,11.49-37.53
			S1633.64,269.34,1633.64,269.34z"/>
	</g>
	<g>
		<path class="st20" d="M1649.21,299.21c0,0,5.62,33.45-14.04,48.77c-19.66,15.32-33.19-4.09-33.19-4.09s17.11,6.64,31.66-14.81
			S1649.21,299.21,1649.21,299.21z"/>
	</g>
	<g>
		<path class="st20" d="M1450.96,395.85c-0.38,0.26-3.36,5.66-3.36,5.66s-6.06,3.74-19.22,5.17c-13.16,1.43-18.33-8.82-18.33-8.82
			s14.48,0.93,24.82,0.29C1445.21,397.51,1450.96,395.85,1450.96,395.85z"/>
	</g>
	<g>
		<path class="st20" d="M1450.83,431.98c0,0,7.53-4.21,15.45-7.53s19.15-2.55,19.15-2.55s2.55,4.98-10.6,11.23s-17.3,5.51-17.3,5.51
			s0.53-1.75-2.65-3.91C1451.7,432.56,1450.83,431.98,1450.83,431.98z"/>
	</g>
	<g>
		<path class="st20" d="M1604.87,516.43c-0.39-0.84-2.13-48.46,2.72-75.52c4.85-27.06,9.96-53.62,9.96-53.62
			s-3.32,14.91-19.91,42.94c-16.6,28.04-40.09,50.5-51.83,58.16c-11.74,7.66-42.88,15-42.88,15s19.39,5.42,41.73-2.24
			c22.34-7.66,33.31-19.79,35.99-19.22c2.69,0.58,10.88,10.5,15.21,17.85S1604.87,516.43,1604.87,516.43z"/>
	</g>
	<g>
		<path class="st21" d="M1408.62,278.62c0.51-1.02,6.47-10.55,21.45-12.94c14.98-2.38,40,10.55,40,10.55s-23.83,1.36-35.57,7.32
			c-11.74,5.96-10.24,9.01-16.51,9.87C1404.36,295.3,1408.62,278.62,1408.62,278.62z"/>
	</g>
	<g>
		<path class="st21" d="M1436.53,305.17c1.08,0,20.09,4.26,19.4,17.19c-0.68,12.94-13.79,6.3-13.62-1.87
			C1442.49,312.32,1436.53,305.17,1436.53,305.17z"/>
	</g>
	<g>
		<path class="st22" d="M1459.77,178.7c0,0-31.15,42.64-61.53,34.72c-30.38-7.91-33.19-46.21-27.57-56.68
			c5.62-10.47,11.74-13.53,12.51-19.66c0.77-6.13,7.15-4.6,14.3-7.15c7.15-2.55,24.51-4.34,34.21-18.64
			c9.7-14.3,42.89-37.02,84.77-51.83s126.64-23.49,151.66-12c25.02,11.49,27.83,20.43,39.32,24s66.38,23.74,69.7,85.28
			c3.32,61.53,3.57,73.79-9.19,125.36s-5.36,90.21-5.36,90.21s0.76-5.7-13.54-4.17c-14.3,1.53-26.55,6.64-36.26,1.79
			c-9.7-4.85-36.77-26.28-47.74-43.4c-10.98-17.12-14.85-22.99-15.09-37.8c-0.23-14.81-3.55-63.83-43.89-58.47
			c-40.34,5.36-30.89,57.96-41.87,61.53c-10.98,3.57-21.96,8.23-28.85-11.46c-6.89-19.69-16.09-39.09-46.21-47.77
			C1459,223.89,1459.77,178.7,1459.77,178.7z"/>
	</g>
	<g>
		<path class="st23" d="M1504.45,135.81c-1.02,0.51-4.6,10.89-22.3,10.21c-17.7-0.68-22.64-6.81-22.64-6.81s15.66,3.95,28.09,1.72
			C1500.02,138.7,1504.45,135.81,1504.45,135.81z"/>
	</g>
	<g>
		<path class="st23" d="M1384.79,149.6c1.36,0.68,3.83,5.96,23.11,5.45c19.28-0.51,24.89-6.47,24.89-6.47s-11.32,2.21-24.89,2.55
			C1394.32,151.47,1384.79,149.6,1384.79,149.6z"/>
	</g>
	<g>
		<path class="st23" d="M1368.32,174.28c0,0,3.87,24.34,24.29,28.09c20.43,3.74,40.39,0.83,51.85-6.91
			c11.47-7.73,22.19-22.37,7.21-19.82c-14.98,2.55-20.42,17.05-49.87,15.66C1372.36,189.91,1368.32,174.28,1368.32,174.28z"/>
	</g>
	<g>
		<path class="st23" d="M1463.77,175.64c0,0,13.28,0.85,25.36-3.91s13.45-6.64,13.45-6.64s0,8-17.36,14.47
			S1463.77,175.64,1463.77,175.64z"/>
	</g>
	<g>
		<path class="st23" d="M1528.79,210.53c0,0,0.34,10.21,15.32,15.49c14.98,5.28,20.94,2.38,20.94,2.38s-16.85-3.23-25.36-9.7
			C1531.17,212.23,1528.79,210.53,1528.79,210.53z"/>
	</g>
	<g>
		<path class="st23" d="M1649.96,223.64c0,0,10.36,6.51,18.28,27.45s8.17,22.34,8.17,22.34s-10.6-21.45-16.21-29.36
			C1654.57,236.15,1649.96,223.64,1649.96,223.64z"/>
	</g>
	<g>
		<path class="st23" d="M1740.49,320.66c0,0,10.72-7.15,10.72-20.17c0-13.02-1.4-18.77-1.4-13.4s-1.53,14.81-3.83,21.19
			C1743.68,314.66,1740.49,320.66,1740.49,320.66z"/>
	</g>
	<g>
		<path class="st24" d="M1490.24,1439.47c0,0-21.36,55.66-26.81,91.41c-5.45,35.74-9.53,69.13-9.53,69.13h545.87
			c0,0,13.45-68.79,13.45-116.11c0-47.32-17.9-102.38-17.9-102.38s-146.95,35.23-272.57,47.49S1490.24,1439.47,1490.24,1439.47z"/>
	</g>
	<g>
		<path class="st25" d="M1995.31,1381.51l7.81,28.56c0,0-101.91,55.44-257.14,71.78s-260.97-28.09-260.97-28.09l5.23-14.3
			c0,0,207.17-3.42,297.22-18.37C1877.51,1406.15,1995.31,1381.51,1995.31,1381.51z"/>
	</g>
	<g>
		<path class="st26" d="M1457.55,862.01c0,0-117.7-43.3-136.76-59.98s-91.57-62.3-104.85-72.51s-22.13-9.53-42.55-3.4
			s-63.66,23.15-78.3,34.72S1061.04,800,1061.04,800l41.02,27.18l8.68,86.51c0,0,13.02,19.23,23.23,12.98
			c10.21-6.26,14.68-16.85,14.68-16.85s5.23,20.89,20.04,18.1s13.79-26.27,13.79-26.27s15.57-1.4,22.89,4.04
			c7.32,5.45,21.45,19.57,46.64,19.57c25.19,0,33.19-6.3,43.74-1.7c10.55,4.6,144.09,95.66,144.09,95.66L1457.55,862.01z"/>
	</g>
	<g>
		<path class="st27" d="M1446.64,1023.65c0,0-140.32-95.5-150.87-100.09c-10.55-4.6-18.55,1.7-43.74,1.7
			c-25.19,0-39.32-14.13-46.64-19.57c-7.32-5.45-22.89-4.04-22.89-4.04s1.02,23.49-13.79,26.27s-20.04-18.1-20.04-18.1
			s-4.47,10.6-14.68,16.85c-10.21,6.26-23.23-12.98-23.23-12.98l-7.25-61.7c0,0,50.44,16.26,68.59,23.61
			c19.69,7.97,26.32,16.31,39.94,23.97c13.62,7.66,26.21,20.6,59.57,14.81s28.26-14.98,43.4-8.85
			c15.15,6.13,137.02,82.72,137.02,82.72L1446.64,1023.65z"/>
	</g>
	<g>
		<path class="st28" d="M1810.43,454.26c0,0,14.44,4.53,27.46,13.72c13.02,9.19,22.21,14.81,50.55,25.53
			c28.34,10.72,159.83,62.55,197.62,194.81c37.79,132.26,44.43,247.66,36.77,253.28c-7.66,5.62-55.15,19.91-73.02,24
			c-17.87,4.09-30.64,6.13-30.64,6.13s-9.19,243.57-21.45,268.6c-12.26,25.02-17.87,10.21-13.79,29.11
			c4.09,18.89,39.83,101.62,1.53,120c-38.3,18.38-203.74,58.21-284.94,64.85c-81.19,6.64-213.45-15.32-213.45-15.32
			s-6.47-25.02,0.85-36.09c7.32-11.06,1.19-28.26-1.53-44.09s23.4-154.21,23.4-154.21l116.43-141.7l8.94-28.09
			c0,0-91.57-1.79-150.72-23.74s-60.17-23.49-55.06-44.43c5.11-20.94,18.89-46.47,33.7-135.32
			c14.81-88.85,15.83-175.66,77.62-219.57c61.79-43.91,66.55-45.45,66.55-45.45s48.51-65.87,118.3-89.7
			C1795.34,452.74,1810.43,454.26,1810.43,454.26z"/>
	</g>
	<g>
		<path class="st29" d="M2056.76,963.88c0.71-2.2,13.65-231.31,10.24-243.57s-16.68,98.77-16.68,79.68s0-88.53-3.4-115.09
			c-3.4-26.55-12.94-26.55-12.94-26.55s8.85,17.7,8.85,112.34s-23.66,201.02-23.66,201.02L2056.76,963.88z"/>
	</g>
	<g>
		<path class="st29" d="M1544.28,635.72c0,0,68.94-21.7,119.74,50.81c50.81,72.51,37.28,149.62,33.7,177.7
			c-3.57,28.09-12.51,31.4-20.17,76.85c-7.66,45.45-18.64,92.68-18.64,92.68h-16.6c0,0-26.3,102.64-36.26,130.98
			c-9.96,28.34-40.09,81.96-56.43,94.72c-16.34,12.77-54.53,28.1-54.53,28.1s-8.41,48.47-8.73,63.29
			c-0.32,14.82,4.02,28.13,4.02,28.13s26.04-5.14,59.23-34.76c33.19-29.62,47.23-36.34,103.74-44.17
			c56.51-7.83,118.13-29.62,117.11-29.62s-105.53,3.74-137.87-4.43c-32.34-8.17-40.51-3.74-33.02-12.6s14.64-33.7,38.81-47.32
			c24.17-13.62,77.28-44.94,99.4-66.04c22.13-21.11,34.38-39.83,34.38-39.83s-66.38,58.55-91.91,70.13
			c-25.53,11.57-42.21,25.53-39.15,14.64s38.13-88.85,44.6-144c6.47-55.15,3.74-88.17,9.53-97.02
			c5.79-8.85,55.49-101.11,63.66-157.62c8.17-56.51,4.09-84.09,4.09-84.09s-12.94,82.38-30.64,117.79
			c-17.7,35.4-31.66,59.57-30.3,51.06c1.36-8.51,20.43-88.51-18.38-169.19c-38.81-80.68-119.49-73.87-129.02-72.85
			C1545.13,630.11,1544.28,635.72,1544.28,635.72z"/>
	</g>
	<g>
		<path class="st29" d="M1906.83,692.91c0,0,13.28,108.26-24,188.94c-37.28,80.68-47.49,89.87-47.49,89.87s39.83-84.77,54.64-175.66
			C1904.79,705.17,1906.83,692.91,1906.83,692.91z"/>
	</g>
	<g>
		<path class="st29" d="M1999.77,867.04c0,0-24,112.34-57.7,196.6s-126.13,171.06-126.13,171.06s102.64-125.62,135.83-222.13
			C1984.96,916.06,1999.77,867.04,1999.77,867.04z"/>
	</g>
	<g>
		<path class="st29" d="M1975.26,1170.36c0,0-37.79,83.23-139.4,134.81s-155.74,63.32-155.74,63.32s123.57-61.79,180.77-99.06
			c57.19-37.28,92.09-72.85,99.57-85.11c7.49-12.26,14.3-23.49,14.81-20.09C1975.77,1167.64,1975.26,1170.36,1975.26,1170.36z"/>
	</g>
	<g>
		<path class="st29" d="M1983.29,1266.29c0,0-38.5,22.54-75.44,38.54s-63.49,29.62-71.32,38.13c-7.83,8.51-8.74,9.87-8.74,9.87
			s17.93-10.21,44.14-14.98s53.11-13.28,74.55-26.89c21.45-13.62,36.8-38.13,36.8-38.13V1266.29z"/>
	</g>
	<g>
		<path class="st29" d="M1988.02,1341.94c0,0-102.64,38.81-208.85,56.17c-106.21,17.36-224.68,12.26-249.7,11.23
			c-25.02-1.02-39.64-10.2-39.64-10.2s-1.51,3.12-1.89,3.73c-0.38,0.61,25.53,22.81,152.51,17.36
			c126.98-5.45,304.68-56.85,322.72-62.64C1981.21,1351.81,1988.02,1341.94,1988.02,1341.94z"/>
	</g>
	<g>
		<path class="st29" d="M1881.3,995.47c0,0-13.24,78.89-104.75,156.51c-91.51,77.62-121.12,86.81-121.12,86.81
			s116.43-76.26,164.77-145.7C1868.53,1023.64,1881.3,995.47,1881.3,995.47z"/>
	</g>
	<g>
		<path class="st29" d="M1434.95,948.44c0,0,28.13,16.64,100.64,39.45s131.18,9.83,131.18,9.83v-3.7c0,0-68.2,9.53-137.65-13.96
			c-69.45-23.49-92.55-36.52-92.55-36.52L1434.95,948.44z"/>
	</g>
	<g>
		<path class="st25" d="M1831.43,1600c0,0,17.44-49.47,18.97-87.26c1.53-37.79,2.06-49.2,2.06-49.2l-5.67,1.34
			c0,0,2.08,52.2-7.12,90.24c-9.19,38.04-13.98,44.87-13.98,44.87H1831.43z"/>
	</g>
	<g>
		<path class="st25" d="M1908.85,1413.94c0,0,9.1,41.26-0.48,105.02c-9.11,60.6-25.06,81.04-25.06,81.04h5.69
			c0,0,13.04-21.64,23.36-77.3c10.31-55.66,0-109.7,0-109.7L1908.85,1413.94z"/>
	</g>
	<g>
		<path class="st25" d="M1627.17,1600c0,0,4.43-102.08,4.43-114.54s0-14.84,0-14.84h7.49c0,0-1.7,43.91-3.06,69.11
			s-2.89,60.28-2.89,60.28H1627.17z"/>
	</g>
	<g>
		<path class="st25" d="M1943.99,1435.75c0,1.02,5.56,63.46,3.18,88.31c-2.38,24.85-14.3,75.94-14.3,75.94h3.57
			c0,0,12.26-37.81,14.55-82.15c2.58-49.74-2.61-83.75-2.61-83.75L1943.99,1435.75z"/>
	</g>
	<g>
		<path class="st25" d="M1527.38,1600c0,0,7.54-61.64,9.92-78.66c2.38-17.02,8.51-57.53,8.51-57.53h5.45
			c0,0-10.21,71.49-11.91,85.11c-1.7,13.62-7.15,51.09-7.15,51.09H1527.38z"/>
	</g>
	<g>
		<path class="st30" d="M2085.47,955.64c0,0,9.27,164.17-13.2,194.81s-65.46,31.33-65.46,31.33l12.35-210.05L2085.47,955.64z"/>
	</g>
	<g class="st10">
		<path class="st31" d="M1142.06,835.72c0,0,29.96-3.4,40.68-8.51c10.72-5.11,23.49-21.28,23.49-21.28s-7.66,4.26-13.62,8.51
			c-5.96,4.26-8.51,6.13-8.85,5.11c-0.34-1.02-2.89-3.4-2.55-9.02s-1.02-50.72-1.02-50.72s-2.89,9.53-4.26,22.47
			s2.21,28.09-1.79,24.68c-4-3.4-10.3-10.21-10.3-20.09c0-9.87-3.06-31.66-3.06-31.66s-3.23,27.4-11.23,30.81
			c-8,3.4-23.15,7.49-27.06,5.79c-3.91-1.7-6.47-6.3-7.66-8.34c-1.19-2.04-2.55,2.21-5.96,6.3c-3.4,4.09-16.79,23.92-16.79,23.92
			L1142.06,835.72z"/>
	</g>
	<g class="st32">
		<path class="st33" d="M1092.08,813.68l10.33,4.34c0,0,8.17-5.11,11.4-14.64c3.23-9.53-1.72-18.17-1.72-18.17L1092.08,813.68z"/>
	</g>
	<g class="st32">
		<path class="st33" d="M1107.85,820.4c-0.17-0.51,7.83-12.77,13.28-14.98s29.62-5.62,31.66-2.21s-3.74,6.98-12.94,12.09
			s-17.17,11.88-17.17,11.88L1107.85,820.4z"/>
	</g>
	<g class="st32">
		<path class="st33" d="M1134.44,827.65c0,0,23.29-16.36,31.29-14.15s6.02,15.11,6.02,15.11l-25.77,4.12L1134.44,827.65z"/>
	</g>
	<g>
		<path class="st33" d="M1146.11,886.53c0.38,0.21,16.6-5.15,23.74,2.77s8.43,26.68-2.68,26.43
			C1156.06,915.46,1146.11,886.53,1146.11,886.53z"/>
	</g>
	<g>
		<path class="st33" d="M1119.3,887.77c1.15-0.64,15.57-2.98,18.13,0.72c2.55,3.7-0.59,25.27-5.49,29.87
			C1124.05,925.77,1119.3,887.77,1119.3,887.77z"/>
	</g>
	<g>
		<g>
			<path class="st34" d="M1027.1,910.56L909.5,822.07c-2.8-2.1-1.82-6.52,1.61-7.25l119.23-25.27c4.61-0.98,9.41-0.07,13.35,2.51
				l123,80.56c5.13,3.36,3.85,11.21-2.09,12.76l-114.14,29.79C1042.38,917.28,1033.77,915.58,1027.1,910.56z"/>
		</g>
		<g>
			<path class="st35" d="M1032.08,909.33l-118.11-87.8c-2.81-2.09-1.86-6.51,1.56-7.26l119.09-25.96c4.6-1,9.41-0.13,13.36,2.43
				l123.46,79.85c5.15,3.33,3.91,11.19-2.02,12.77l-113.96,30.45C1047.4,915.96,1038.79,914.31,1032.08,909.33z"/>
		</g>
		<g>
			<path class="st36" d="M958.11,842.52l-25.9-19.25c-0.62-0.46-0.41-1.43,0.34-1.59l26.11-5.69c1.01-0.22,2.06-0.03,2.93,0.53
				l27.07,17.51c1.13,0.73,0.86,2.45-0.44,2.8l-24.99,6.68C961.47,843.98,959.58,843.62,958.11,842.52z"/>
		</g>
		<g>
			
				<rect x="937.49" y="824.66" transform="matrix(0.969 -0.2471 0.2471 0.969 -174.3166 261.475)" class="st35" width="33.99" height="1"/>
		</g>
		<g>
			
				<rect x="946.13" y="831.61" transform="matrix(0.969 -0.2471 0.2471 0.969 -175.765 263.8263)" class="st35" width="33.99" height="1"/>
		</g>
		<g>
			
				<rect x="954.11" y="810.57" transform="matrix(0.6003 -0.7998 0.7998 0.6003 -283.6491 1095.897)" class="st35" width="1" height="42.33"/>
		</g>
		<g>
			
				<rect x="968.26" y="807.1" transform="matrix(0.5747 -0.8184 0.8184 0.5747 -265.8911 1145.1278)" class="st35" width="1" height="42.56"/>
		</g>
	</g>
	<g>
		<path class="st26" d="M1200,889.17c0,0-30.64-17.64-71.49-29.13c-40.85-11.49-79.96-13.91-86.57-44.7
			c-5.83-27.1,28.49-22.85,49.55-15.55c23.47,8.13,75.06,25.28,105.19,26.55s58.47-3.06,58.47-3.06L1200,889.17z"/>
	</g>
	<g class="st10">
		<path class="st33" d="M1079.94,835.69c-10.88,0-31.39-7.94-33.21-16.07c-1-4.45,0.84-15.79,4.4-19.11v0
			c2.61-2.42,7.42-2.06,11.73-1.53c13.14,1.62,29.12,5.44,30.7,14.43c1.37,7.83,0.39,14.01-2.84,17.86
			C1088.26,834.21,1084.63,835.69,1079.94,835.69z M1053.17,802.72c-2.5,2.33-4.39,12.36-3.52,16.25
			c1.26,5.64,19.1,13.72,30.29,13.72c3.77,0,6.62-1.12,8.48-3.34c2.64-3.15,3.4-8.48,2.18-15.41c-0.95-5.44-11.47-9.92-28.12-11.97
			C1060.05,801.67,1054.97,801.04,1053.17,802.72L1053.17,802.72z"/>
	</g>
	<g>
		<path class="st30" d="M1450.35,997.86c0,0-32.2,234.8-66.92,335.91c-34.72,101.11-58.32,266.23-58.32,266.23h149.18
			c0,0,65.27-256.93,111.51-391.87c46.24-134.94,56.52-174.36,56.52-174.36s-86.3-1.28-128.68-14.04
			C1471.26,1006.96,1450.35,997.86,1450.35,997.86z"/>
	</g>
</g>
</svg>
