<?xml version="1.0" encoding="utf-8"?>
<!-- Generator: Adobe Illustrator 27.3.1, SVG Export Plug-In . SVG Version: 6.00 Build 0)  -->
<svg version="1.1" xmlns="http://www.w3.org/2000/svg" xmlns:xlink="http://www.w3.org/1999/xlink" x="0px" y="0px"
	 viewBox="0 0 2500 1500" style="enable-background:new 0 0 2500 1500;" xml:space="preserve">
<g id="Layer_1">
</g>
<g id="Layer_2">
	<g>
		<rect style="fill:#F19300;" width="2500" height="1500"/>
	</g>
	<g>
		<g>
			<polygon style="fill:#E68369;" points="962.57,1295.26 531.2,951.5 914.45,504.15 1333.45,840.89 			"/>
			<path d="M962.94,1298.76l-1.93-1.54l-433.4-345.37l386.52-451.16l422.85,339.84l-1.59,1.95L962.94,1298.76z M534.78,951.16
				l427.41,340.6l367.73-450.5L914.77,507.61L534.78,951.16z"/>
		</g>
		<polygon style="fill:#222831;" points="1114.39,1183.74 975.41,1369.09 877.26,1500 0,1500 485.42,953.18 494.66,942.78 
			639.23,779.94 640.51,778.49 		"/>
		<path d="M640.26,774.99l-2.9,3.29L492.79,941.12l-9.24,10.4L0,1496.24v3.76h3.35l483.94-545.16l9.24-10.4l144.22-162.45
			l470.23,402.13l-137.57,183.47L874.14,1500h6.25l237.41-316.64L640.26,774.99z"/>
		<g>
			<path style="fill:#E68369;" d="M901.47,547.82c0,0,26.41-129.44,73.33-198.05s178.55-178.25,202.5-191.51
				c15.36-8.5,52.64-37.88,97.38-19.94c32.75,13.14,41.61,30.59,43.98,39.72c0.75,2.89,3.96,4.37,6.67,3.12
				c11.71-5.39,39.67-14.72,70.55,0.41c37.39,18.32,50.1,53.06,53.65,65.95c0.74,2.7,3.44,4.39,6.19,3.85
				c13.06-2.55,49.22-7.05,79.26,13.18c37.39,25.18,40.18,79.71,40.18,79.71s67.85,27.85,70.52,96.47
				c2.67,68.64-102.16,187.22-188.76,267.15c-53.92,49.76-159.67,179.29-159.67,179.29L901.47,547.82z"/>
			<path d="M1297.56,890.73L898.73,548.77l0.29-1.44c0.27-1.3,27.05-130.72,73.72-198.97c48.33-70.67,180.69-179.75,203.35-192.28
				c1.87-1.04,4.09-2.4,6.67-3.98c18.36-11.27,52.55-32.26,92.85-16.09c33.71,13.52,42.96,31.75,45.47,41.41
				c0.23,0.88,0.86,1.3,1.22,1.47c0.63,0.3,1.35,0.3,1.99,0.01c11.13-5.12,40.49-15.34,72.7,0.44
				c37.96,18.6,51.08,53.43,54.96,67.54c0.4,1.44,1.84,2.34,3.3,2.06c14.22-2.78,50.58-7.02,81.14,13.56
				c34.87,23.49,40.41,70.74,41.17,80.1c4.52,2.05,18.83,9.11,33.54,22.33c16.14,14.5,35.67,39.41,37.09,75.73
				c1.24,31.73-19.43,75.79-61.41,130.95c-32.75,43.03-78.27,92.09-128.15,138.13c-53.17,49.07-158.37,177.74-159.43,179.03
				L1297.56,890.73z M904.22,546.89l392.71,336.72c13.57-16.53,108.5-131.61,158.29-177.56c92.53-85.4,190.5-199.92,187.96-265.21
				c-2.58-66.25-68.31-93.98-68.97-94.25l-1.46-0.6l-0.08-1.58c-0.03-0.53-3.18-53.59-39.08-77.77c-29-19.53-63.78-15.46-77.38-12.8
				c-4.01,0.78-7.99-1.7-9.08-5.64c-3.7-13.46-16.2-46.67-52.34-64.37c-30.28-14.84-57.93-5.21-68.41-0.39
				c-1.98,0.91-4.25,0.9-6.22-0.03c-1.95-0.92-3.38-2.65-3.92-4.73c-2.28-8.75-10.82-25.33-42.49-38.03
				c-37.97-15.23-70.76,4.9-88.38,15.71c-2.62,1.61-4.89,3-6.86,4.09c-22.45,12.43-153.68,120.6-201.64,190.73
				C933.4,414.73,907.29,532.54,904.22,546.89z"/>
		</g>
		<g>
			
				<rect x="888.45" y="517.35" transform="matrix(0.6471 -0.7624 0.7624 0.6471 -238.3642 1060.7522)" style="fill:#4F4C81;" width="276.5" height="541.03"/>
			<path d="M1143.76,1071.85l-1.91-1.62L727.48,718.5l182.16-214.61l1.91,1.62l414.38,351.74l-1.62,1.91L1143.76,1071.85z
				 M734.52,717.92l408.66,346.88l175.69-206.98L910.22,510.94L734.52,717.92z"/>
		</g>
		<g>
			<g>
				<g>
					<path style="fill:#F19300;" d="M1202.31,792.91c0,96.01-77.83,173.84-173.83,173.84c-96.01,0-173.84-77.83-173.84-173.84
						c0-96,77.83-173.83,173.84-173.83C1124.48,619.08,1202.31,696.91,1202.31,792.91z"/>
					<path d="M1028.48,969.25c-97.23,0-176.34-79.11-176.34-176.34c0-97.23,79.11-176.33,176.34-176.33
						c97.23,0,176.33,79.1,176.33,176.33C1204.81,890.14,1125.7,969.25,1028.48,969.25z M1028.48,621.58
						c-94.48,0-171.34,76.86-171.34,171.33c0,94.48,76.86,171.34,171.34,171.34c94.47,0,171.33-76.86,171.33-171.34
						C1199.81,698.43,1122.95,621.58,1028.48,621.58z"/>
				</g>
				<g>
					<path d="M1092.5,857.04c-6.58,7.62-13.52,14.59-20.8,20.9c-7.29,6.32-13.86,10.85-19.72,13.59l-17.93-14.94
						c6.23-2.9,13.3-7.38,21.19-13.43c7.9-6.05,14.9-12.6,21.01-19.66l-42.61-35.49c-10.26,7.17-19.5,12.34-27.73,15.49
						c-8.22,3.16-15.93,4.19-23.11,3.08c-7.18-1.09-14.08-4.4-20.69-9.91c-6.89-5.74-11.42-12.31-13.59-19.71
						c-2.17-7.4-2.18-15.33-0.02-23.78c2.15-8.44,6.42-16.93,12.79-25.44l-18.57-15.46l11.24-13.5l18.35,15.28
						c6.35-7.33,12.81-13.45,19.38-18.34c6.57-4.89,13.02-8.99,19.35-12.29l10.87,18.7c-5.58,2.98-11.29,6.62-17.13,10.92
						c-5.85,4.3-11.32,9.09-16.43,14.36l42.4,35.31c10.4-7.06,19.69-12.42,27.87-16.09c8.18-3.67,15.8-5.24,22.86-4.72
						c7.07,0.53,14.12,3.72,21.15,9.57c9.85,8.2,14.78,18.51,14.81,30.91c0.03,12.41-4.82,25.88-14.54,40.41l23.42,19.5l-11.24,13.5
						L1092.5,857.04z M977.53,761.29c-3.93,5.3-6.51,10.18-7.73,14.64c-1.22,4.47-1.3,8.5-0.26,12.11c1.05,3.61,3.12,6.7,6.21,9.28
						c3.66,3.05,7.34,4.99,11.06,5.81c3.72,0.83,7.8,0.36,12.25-1.41c4.45-1.77,9.73-4.88,15.82-9.34L977.53,761.29z
						 M1086.45,829.13c6.07-9,9.17-16.66,9.31-22.97c0.14-6.32-2.18-11.46-6.96-15.45c-3.51-2.93-7.02-4.65-10.51-5.18
						c-3.49-0.52-7.52,0.23-12.07,2.27c-4.56,2.04-10.18,5.51-16.89,10.41L1086.45,829.13z"/>
				</g>
			</g>
			<g>
				<path style="fill:#EEDEC4;" d="M1028.48,593.56c-110.1,0-199.35,89.26-199.35,199.35c0,110.1,89.25,199.35,199.35,199.35
					c110.09,0,199.35-89.25,199.35-199.35C1227.83,682.82,1138.57,593.56,1028.48,593.56z M1028.48,966.75
					c-41.85,0-80.24-14.79-110.24-39.42l18.22-20.55c2.92-3.29,2.62-8.33-0.68-11.25c-3.29-2.92-8.33-2.62-11.25,0.68l-18.14,20.46
					c-31.95-31.52-51.77-75.32-51.77-123.75c0-43.83,16.23-83.86,42.99-114.44l20.79,18.43c3.29,2.92,8.33,2.62,11.25-0.68
					c2.92-3.29,2.62-8.33-0.68-11.25l-20.33-18.02c31.18-29.67,73.37-47.88,119.81-47.88c40.92,0,78.54,14.15,108.23,37.81
					l-17.86,20.14c-2.92,3.29-2.62,8.33,0.68,11.25c3.29,2.92,8.33,2.62,11.25-0.68l17.94-20.23c33.03,31.64,53.6,76.19,53.6,125.53
					c0,38.83-12.74,74.69-34.25,103.62l-20.94-17.08c-3.41-2.78-8.43-2.27-11.21,1.14c-2.78,3.41-2.27,8.43,1.14,11.21l20.93,17.07
					C1126.14,944.39,1079.92,966.75,1028.48,966.75z"/>
				<path d="M1028.48,994.76c-111.3,0-201.85-90.55-201.85-201.85c0-111.3,90.55-201.85,201.85-201.85s201.85,90.55,201.85,201.85
					C1230.33,904.21,1139.78,994.76,1028.48,994.76z M1028.48,596.06c-108.54,0-196.85,88.31-196.85,196.85
					c0,108.54,88.31,196.85,196.85,196.85s196.85-88.31,196.85-196.85C1225.33,684.36,1137.02,596.06,1028.48,596.06z
					 M1028.48,969.25c-40.7,0-80.42-14.2-111.82-39.99l-2.01-1.65l19.95-22.5c2-2.26,1.79-5.72-0.46-7.72
					c-1.09-0.97-2.49-1.46-3.95-1.37c-1.46,0.09-2.79,0.74-3.76,1.83l-19.89,22.43l-1.88-1.85c-33.86-33.4-52.51-77.99-52.51-125.53
					c0-42.73,15.49-83.96,43.61-116.08l1.66-1.89l22.67,20.1c2.25,2,5.72,1.79,7.72-0.46c0.97-1.09,1.45-2.5,1.37-3.96
					c-0.09-1.46-0.74-2.79-1.83-3.76l-22.36-19.83l1.97-1.88c32.92-31.32,76.08-48.57,121.54-48.57c40.33,0,78.3,13.26,109.79,38.36
					l2.06,1.64l-19.61,22.12c-0.97,1.09-1.45,2.5-1.37,3.95c0.09,1.46,0.74,2.79,1.83,3.76c2.26,2,5.72,1.79,7.72-0.46l19.66-22.18
					l1.88,1.8c35.06,33.59,54.37,78.81,54.37,127.34c0,38.2-12.02,74.55-34.75,105.12l-1.56,2.1l-22.97-18.73
					c-2.34-1.91-5.79-1.55-7.69,0.78c-1.91,2.34-1.55,5.79,0.78,7.69l22.96,18.72l-1.75,1.95
					C1126.4,947.85,1078.52,969.25,1028.48,969.25z M921.85,927.03c30.19,24.02,67.95,37.22,106.63,37.22
					c47.75,0,93.47-20.05,125.87-55.11l-18.88-15.4c-4.47-3.65-5.14-10.25-1.5-14.73c3.65-4.47,10.25-5.14,14.73-1.5l18.9,15.42
					c21.09-29.26,32.21-63.78,32.21-100.02c0-46.28-18.08-89.47-50.96-121.92l-16.2,18.27c-3.83,4.32-10.46,4.72-14.78,0.89
					c-2.09-1.85-3.34-4.41-3.5-7.2c-0.17-2.79,0.76-5.48,2.62-7.57l16.1-18.16c-30.19-23.33-66.29-35.64-104.6-35.64
					c-43.26,0-84.38,16.08-116.1,45.33l18.27,16.2c2.09,1.85,3.34,4.41,3.5,7.2c0.17,2.79-0.76,5.48-2.62,7.57
					c-3.83,4.32-10.46,4.72-14.78,0.89l-18.89-16.75c-26.29,30.93-40.73,70.2-40.73,110.88c0,45.32,17.44,87.87,49.16,120.11
					l16.38-18.47c1.85-2.09,4.41-3.34,7.2-3.5c2.79-0.17,5.48,0.76,7.57,2.62c4.32,3.83,4.72,10.46,0.89,14.77L921.85,927.03z"/>
			</g>
		</g>
		<g>
			<path style="fill:#E68369;" d="M2025.52,880.9c0,0-290.13-193.92-361.2-256.24c-56.46-49.51-363.8,50.61-349.61,166.07
				c14.18,115.46-36.59,175.38-36.59,175.38s-74.43,22.11-90.56,24.35s-127.07-31.2-165.17-1.94
				c-28.81,22.12-8.96,86.04,56.46,99.93c45.6,9.68,83.58,18.49,102.41,22.94c8.54,2.02,17.32,2.81,26.08,2.34l150.65-7.94
				l300.68,208.24L2025.52,880.9z"/>
			<path d="M1659.11,1317.39l-1.87-1.29l-299.98-207.76l-149.79,7.9c-9,0.47-18.02-0.34-26.79-2.41
				c-18.64-4.4-56.72-13.24-102.36-22.93c-43.39-9.21-64.78-38.93-69.91-61.58c-4.02-17.73,0.64-33.72,12.44-42.79
				c28.55-21.92,95.82-9.89,136.01-2.7c14.12,2.53,26.32,4.71,30.34,4.15c14.91-2.07,81.62-21.73,89.45-24.05
				c2.34-2.97,13.33-17.68,22.82-43.34c9.82-26.54,19.99-70.55,12.75-129.56c-2.81-22.88,6.29-46.23,27.05-69.39
				c17.95-20.03,44.93-39.86,78.03-57.37c44.17-23.36,97.04-41.64,145.06-50.15c50.29-8.91,87.09-5.84,103.6,8.65
				c70.14,61.51,358.04,254.11,360.94,256.05l2.33,1.56l-1.81,2.14L1659.11,1317.39z M1358.71,1103.26l299.52,207.44l363.58-429.27
				c-27.69-18.56-292.12-196.12-359.13-254.88c-15.13-13.27-51.38-16-99.44-7.48c-47.53,8.42-99.87,26.51-143.6,49.64
				c-32.58,17.23-59.08,36.7-76.64,56.29c-19.75,22.04-28.44,44.05-25.81,65.44c7.39,60.14-3.05,105.07-13.11,132.16
				c-10.95,29.49-23.52,44.51-24.05,45.14l-0.48,0.57l-0.71,0.21c-3.05,0.91-74.79,22.19-90.93,24.43
				c-4.81,0.67-16.18-1.37-31.91-4.18c-39.38-7.04-105.29-18.83-132.09,1.74c-10.22,7.84-14.18,21.94-10.61,37.71
				c4.81,21.21,24.99,49.07,66.07,57.79c45.69,9.7,83.81,18.55,102.47,22.96c8.31,1.96,16.85,2.73,25.37,2.28L1358.71,1103.26z"/>
		</g>
		<polygon style="fill:#222831;" points="2500,1162.69 2500,1500 1828.76,1500 1664.56,1376.03 1483.9,1239.63 1868.69,737.72 
			2053.38,863.51 		"/>
		<path d="M2054.79,861.44l-186.65-127.12l-386.22,503.79l-1.54,2L1824.62,1500h8.29l-345.49-260.85l381.82-498.03l182.75,124.47
			L2500,1165.7v-6.02L2054.79,861.44z"/>
		<path style="fill:#E68369;" d="M1761.77,698.96c0,0,52.39-115.52,58.06-147.9c5.66-32.38,37.7-175.98-3.39-186.7
			c-26.92-7.02-61.98,26.89-65.25,57.56c-6.58,61.63-16.37,94.28-16.37,94.28l-76.42,107.19
			C1658.4,623.39,1719.81,704.98,1761.77,698.96z"/>
		<path d="M1817.08,361.94c-10.79-2.82-23.49,0.31-35.76,8.79c-17.55,12.13-30.66,32.59-32.61,50.92
			c-6.1,57.07-15.05,89.55-16.17,93.44l-75.84,105.29l1.04,1.46c0.22,0.31,0.89,1.24,1.94,2.68l25.92-35.71l0.98-1.35l50.27-69.8
			l0.25-0.34l0.12-0.4c0.1-0.33,9.93-33.59,16.46-94.74c1.81-16.97,14.06-35.99,30.49-47.34c11.05-7.64,22.29-10.5,31.64-8.06
			c14.37,3.74,20.67,28.18,18.24,70.66c-2.09,36.35-9.76,76.63-14.35,100.7c-0.95,4.99-1.78,9.3-2.33,12.48
			c-5.19,29.65-50.83,131.67-57.15,145.7l-0.14,0.32l-1.36,3.16l2.43,1.75c0.33-0.03,0.66-0.07,0.98-0.12l1.35-0.19l0.57-1.25
			c2.15-4.73,52.59-116.19,58.24-148.51c0.55-3.14,1.37-7.43,2.32-12.41C1834.13,489.14,1856.41,372.2,1817.08,361.94z"/>
		<g>
			<path style="fill:#E68369;" d="M1627.01,707.16c0,0,84.62-203.24,80.16-249.04c-4.45-45.8-107.45-262.38-149.57-233.49
				c-22.04,15.11-31.65,66.17-11.91,118.89c31.5,84.12,23.57,115.02,23.57,115.02l-68.3,182.06
				C1500.96,640.6,1606.46,716.03,1627.01,707.16z"/>
			<path d="M1709.66,457.88c-2.01-20.68-23.27-74.18-49.46-124.43c-14.98-28.77-53.1-97.19-83.39-111.32
				c-7.9-3.68-14.83-3.53-20.62,0.44c-11.64,7.98-19.91,25.14-22.69,47.09c-2.96,23.34,0.54,49.88,9.85,74.74
				c29.07,77.62,24.22,109.74,23.56,113.21c-0.03,0.14-0.06,0.27-0.11,0.41l-68.18,181.71c-0.4,1.06-0.03,2.25,0.89,2.9l0,0
				c0.16,0.12,10.58,7.55,25.37,17.41c0.82,0.55,1.9,0.56,2.73,0.02l0.03-0.02c1.51-0.97,1.52-3.17,0.03-4.17
				c-9.98-6.65-17.95-12.18-22.11-15.1c-0.93-0.65-1.3-1.85-0.9-2.91l66.95-178.46l0.08-0.26c0.33-1.29,7.76-32.63-23.66-116.52
				c-19.32-51.6-9.92-101.61,10.99-115.95c4.28-2.94,9.41-2.95,15.68-0.02c20.34,9.48,49.9,49.25,81.07,109.09
				c25.93,49.76,46.95,102.47,48.91,122.6c3.33,34.2-44.85,160.17-67.98,218.21c-0.48,1.2,0.04,2.56,1.19,3.15l0.06,0.03
				c1.3,0.66,2.89,0.06,3.43-1.29C1664.48,620.71,1713.16,493.84,1709.66,457.88z"/>
		</g>
		<path style="fill:#E68369;" d="M1572.51,700.42c0,0-1.13-227.78-23.9-269.69s-201.47-247.23-234.52-205.97
			c-25.8,32.2-12.85,90.11,31.66,148.29c53.81,70.35,90.53,143.53,90.53,143.53l-11.34,170.8
			C1424.94,687.38,1556.42,717.11,1572.51,700.42z"/>
		<path d="M1550.81,429.54c-10.09-18.58-51.83-70.63-97.87-118.5c-32.63-33.93-92.13-91.28-124.04-94.12
			c-7.26-0.65-12.9,1.46-16.76,6.27c-13.09,16.34-16.9,39.33-11.02,66.5c5.74,26.56,20.49,55.91,42.65,84.88
			c49.29,64.44,84.63,132.1,89.66,141.92c0.2,0.4,0.29,0.84,0.27,1.29l-10.63,159.95c-0.17,2.55,3.16,3.66,4.55,1.52l0.06-0.09
			c0.23-0.36,0.37-0.76,0.4-1.19l10.75-161.91l-0.3-0.6c-0.37-0.74-37.45-74.2-90.78-143.93c-43.92-57.42-56.36-114.42-31.69-145.21
			c2.77-3.47,6.84-4.92,12.41-4.42c22.44,2,65.37,34.89,120.88,92.61c45.76,47.58,87.14,99.12,97.08,117.41
			c20.49,37.72,23.24,232.47,23.55,264.17c0.02,1.4,0.02,2.48,0.03,3.22c-0.01,0-0.01,0.01-0.02,0.02l0.01,3.5
			c0,1.34,1.08,2.43,2.42,2.48c0.02,0,0.04,0,0.06,0c1.4,0.04,2.55-1.1,2.54-2.5C1574.8,679.8,1572.37,469.22,1550.81,429.54z"/>
		<path style="fill:#E68369;" d="M1317.1,837.77c0,0-7.89-146.23-25.01-170.95c-11.52-16.63-138.99-25.61-183.53-41.69
			c-22.09-7.97-71.24-49.08-49.94-82.8c21.3-33.72,282.47-29.37,301.14-10.06c51.06,52.8,114.96,243.05,114.96,243.05
			S1368.55,857.75,1317.1,837.77z"/>
		<g>
			<polygon style="fill:#EEDEC4;" points="1114.39,1183.74 975.41,1369.09 485.42,953.18 494.66,942.78 639.23,779.94 
				640.51,778.49 			"/>
			<path d="M975.82,1372.71l-2.02-1.72L481.85,953.43l10.94-12.31l144.57-162.84l2.9-3.29l477.53,408.37L975.82,1372.71z
				 M488.99,952.93L975,1365.46l135.98-181.35L640.75,781.99L496.53,944.44L488.99,952.93z"/>
		</g>
		<g>
			<polygon style="fill:#EEDEC4;" points="2053.38,863.51 1664.56,1376.03 1483.9,1239.63 1868.69,737.72 			"/>
			<path d="M1665.04,1379.53l-184.66-139.42l1.53-2l386.23-503.79l188.82,128.6L1665.04,1379.53z M1487.42,1239.15l176.66,133.38
				l385.72-508.44l-180.56-122.98L1487.42,1239.15z"/>
		</g>
		<g>
			<circle style="fill:#4F4C81;" cx="971.84" cy="1213.9" r="50.11"/>
			<path d="M971.84,1266.51c-29.01,0-52.61-23.6-52.61-52.61s23.6-52.61,52.61-52.61s52.61,23.6,52.61,52.61
				S1000.85,1266.51,971.84,1266.51z M971.84,1166.28c-26.25,0-47.61,21.36-47.61,47.61s21.36,47.61,47.61,47.61
				c26.25,0,47.61-21.36,47.61-47.61S998.1,1166.28,971.84,1166.28z"/>
		</g>
		<g>
			<circle style="fill:#4F4C81;" cx="1654.26" cy="1213.9" r="50.11"/>
			<path d="M1654.26,1266.51c-29.01,0-52.61-23.6-52.61-52.61s23.6-52.61,52.61-52.61s52.61,23.6,52.61,52.61
				S1683.27,1266.51,1654.26,1266.51z M1654.26,1166.28c-26.25,0-47.61,21.36-47.61,47.61s21.36,47.61,47.61,47.61
				s47.61-21.36,47.61-47.61S1680.52,1166.28,1654.26,1166.28z"/>
		</g>
		<path d="M1477.81,774.42c-2.62-7.79-64.66-191.39-115.53-243.99c-14.69-15.19-149.87-19.87-230.4-11.58
			c-43.1,4.44-68.22,11.86-74.65,22.04c-6.24,9.87-7.31,20.96-3.19,32.96c8.55,24.91,37.58,47.46,54.39,53.53
			c19.7,7.11,55.36,12.83,89.84,18.37c40.6,6.52,86.61,13.91,92.49,22.39c16.53,23.86,24.49,168.21,24.57,169.66l0.09,1.62l1.5,0.58
			c0.87,0.34,1.76,0.65,2.67,0.94c0.04-8.49-0.17-15.97-0.34-20.69c-2.68-39.72-10.46-134.86-24.38-154.96
			c-6.61-9.54-40.61-15.61-95.81-24.48c-34.25-5.5-69.67-11.18-88.93-18.14c-13.95-5.03-43.04-26.19-51.36-50.44
			c-3.6-10.5-2.7-20.15,2.68-28.66c3.14-4.97,16.53-14.14,70.94-19.74c89.41-9.21,214.97-1.63,226.29,10.08
			c47.54,49.15,107.31,221.38,113.81,240.41c-0.01,0.01-0.02,0.01-0.03,0.02l0.83,2.09c0.55,1.38,2.28,1.85,3.45,0.93
			c0.09-0.07,0.17-0.13,0.23-0.18l0,0c0.84-0.65,1.18-1.75,0.84-2.76L1477.81,774.42z"/>
	</g>
</g>
</svg>
